<svg width="100%" height="100%" version="1.1" viewBox="0 0 17.983 2.6702" xmlns="http://www.w3.org/2000/svg" fill="white">
 <g transform="translate(-26.018 -17.296)">
   <path d="m26.621 19.267q0 0.12065 0.03492 0.22225 0.03493 0.09842 0.09525 0.17145 0.0635 0.06985 0.14922 0.11112 0.0889 0.04127 0.1905 0.04127 0.11112 0 0.20002-0.0508 0.09208-0.0508 0.15558-0.14288 0.06668-0.09525 0.1016-0.22542 0.0381-0.13335 0.0381-0.29528t-0.0381-0.29528q-0.0381-0.13652-0.10478-0.23178-0.06668-0.09842-0.16192-0.1524-0.09208-0.05397-0.2032-0.05397-0.13018 0-0.23178 0.0635-0.1016 0.06033-0.15558 0.17145-0.06985 0.1397-0.06985 0.38418zm-0.0064-0.79375h0.0127q0.1016-0.13335 0.22225-0.19368 0.12382-0.0635 0.28575-0.0635 0.17145 0 0.3175 0.06668 0.14922 0.06668 0.25718 0.18415 0.11112 0.11748 0.17145 0.2794 0.0635 0.15875 0.0635 0.3429 0 0.18732-0.0635 0.34925-0.0635 0.15875-0.17462 0.27622-0.10795 0.11748-0.25718 0.18415-0.14922 0.06668-0.32385 0.06668-0.18098 0-0.33972-0.06668-0.15558-0.06668-0.25718-0.18098l-0.14922 0.21272h-0.06985v-1.9177q0-0.32068-0.04127-0.40958-0.0095-0.02223-0.02223-0.03493-0.0127-0.01588-0.0381-0.0254-0.0254-0.0127-0.06985-0.02222-0.04445-0.0095-0.12065-0.01905v-0.07937l0.5969-0.127z"/>
   <path d="m29.205 18.991q-0.18098 0.06985-0.30798 0.13652-0.12382 0.06668-0.20002 0.13335-0.0762 0.06668-0.11112 0.13335-0.03175 0.06668-0.03175 0.13652 0 0.10478 0.06985 0.17145 0.06985 0.06668 0.18415 0.06668 0.08255 0 0.1524-0.04128 0.07303-0.04127 0.127-0.11112 0.05398-0.07303 0.08573-0.16828 0.03175-0.09842 0.03175-0.20638zm0-0.13652v-0.13018q0-0.38735-0.3302-0.38735-0.05398 0-0.09208 0.0095t-0.0635 0.03175q-0.0254 0.02222-0.04763 0.0635-0.01905 0.04127-0.0381 0.1016-0.03493 0.09208-0.06985 0.12382-0.03175 0.02858-0.09525 0.02858-0.15875 0-0.15875-0.15875 0-0.1524 0.16192-0.23495 0.16192-0.08573 0.46038-0.08573 0.3175 0 0.45085 0.1143 0.13335 0.11112 0.13335 0.381v0.7112q0 0.36195 0.14288 0.36195 0.04445 0 0.08573-0.0095 0.04127-0.0127 0.06985-0.06032l0.04445 0.0762q-0.0381 0.07303-0.1397 0.12382-0.1016 0.04763-0.21272 0.04763-0.1397 0-0.20955-0.0889-0.06668-0.0889-0.06668-0.25082h-0.01587q-0.08255 0.15558-0.2286 0.24765-0.14605 0.0889-0.32385 0.0889-0.20002 0-0.31432-0.1016t-0.1143-0.27305q0-0.0762 0.0254-0.14605 0.02858-0.06985 0.0889-0.13335t0.15875-0.12382q0.09843-0.0635 0.2413-0.127z"/>
   <path d="m30.129 19.931h-0.06985v-0.5461h0.07937q0.12382 0.44768 0.45085 0.44768 0.127 0 0.20002-0.06032 0.0762-0.0635 0.0762-0.1905 0-0.04763-0.01588-0.07937-0.0127-0.03493-0.05398-0.06985-0.0381-0.0381-0.11112-0.08573-0.06985-0.04763-0.18732-0.12065-0.10795-0.06668-0.18732-0.12382-0.07937-0.05715-0.13335-0.1143-0.05397-0.06032-0.08255-0.127-0.0254-0.06668-0.0254-0.15558 0-0.10795 0.03493-0.19685 0.0381-0.09208 0.1016-0.15558 0.0635-0.0635 0.14922-0.09842 0.08573-0.0381 0.18732-0.0381 0.08573 0 0.1778 0.02858 0.09208 0.0254 0.16192 0.06985l0.0635-0.06668h0.06032v0.4572h-0.08255q-0.06985-0.19368-0.1524-0.27622t-0.2032-0.08255q-0.10795 0-0.17462 0.05715-0.0635 0.05715-0.0635 0.15875 0 0.05398 0.01588 0.09525 0.01905 0.0381 0.05715 0.0762t0.09525 0.07938q0.06032 0.0381 0.14288 0.0889 0.13652 0.08573 0.23178 0.1524 0.09843 0.06668 0.15875 0.13335 0.06032 0.0635 0.0889 0.13335t0.02858 0.15875q0 0.22542-0.14605 0.3556-0.14605 0.127-0.38418 0.127-0.24765 0-0.42545-0.14288z"/>
   <path d="m32.403 19.82q0.10478 0 0.14288-0.0095 0.04127-0.0095 0.04127-0.0254-0.0032-0.0254-0.0508-0.09207-0.04762-0.06668-0.12382-0.15875l-0.33655-0.4064-0.11748 0.11112v0.18732q0 0.12382 0.0095 0.20002 0.0127 0.07302 0.04128 0.11748 0.03175 0.04127 0.0889 0.05715 0.06032 0.01588 0.15558 0.01905v0.11112h-0.9017v-0.11112q0.09525-0.0032 0.1524-0.01905 0.06033-0.01588 0.09208-0.05715 0.03493-0.04127 0.04763-0.11112 0.0127-0.06985 0.0127-0.18415v-1.3303q0-0.2413-0.0063-0.36512-0.0032-0.12382-0.03175-0.16828-0.02858-0.04445-0.09525-0.0508-0.06668-0.0095-0.1778-0.0095v-0.10795l0.61278-0.12065v1.7431l0.29528-0.28892q0.14288-0.14288 0.21272-0.20955 0.06985-0.06985 0.06985-0.10478 0-0.03493-0.06667-0.05398-0.06668-0.02222-0.1905-0.02222v-0.11112h0.8255v0.11112q-0.06032 0-0.10478 0.0064-0.04445 0.0063-0.08573 0.0254-0.0381 0.01905-0.08255 0.05398-0.04445 0.03175-0.1016 0.08255l-0.4572 0.4064 0.62865 0.7112q0.04445 0.05397 0.07938 0.0889 0.0381 0.03175 0.07302 0.0508 0.0381 0.01905 0.07938 0.02858 0.04445 0.0064 0.10478 0.0064v0.11112h-0.83502z"/>
   <path d="m34.793 19.636q-0.26988 0.32702-0.66992 0.32702-0.18732 0-0.33972-0.06032-0.1524-0.0635-0.26352-0.17462-0.10795-0.1143-0.16828-0.26988-0.06033-0.15875-0.06033-0.34925 0-0.19368 0.0635-0.35878t0.1778-0.28258q0.11748-0.11748 0.27622-0.18415 0.16192-0.06668 0.35242-0.06668 0.30798 0 0.47625 0.16828 0.16828 0.1651 0.16828 0.47625 0 0.04445-0.01905 0.05397-0.01588 0.0095-0.07937 0.0095h-1.0446q-0.0063 0.0254-0.0095 0.0635-0.0032 0.03493-0.0032 0.07937 0 0.1651 0.0381 0.30162 0.04127 0.13335 0.1143 0.2286 0.0762 0.09525 0.1778 0.14922 0.10478 0.0508 0.23178 0.0508 0.13335 0 0.24765-0.05715 0.1143-0.06033 0.23495-0.19368zm-0.52388-0.85725q0.0635 0 0.1016-0.0032t0.05715-0.0127 0.0254-0.0254q0.0064-0.01905 0.0064-0.04763 0-0.14605-0.09525-0.23178-0.09208-0.0889-0.254-0.0889-0.3429 0-0.42545 0.40958z"/>
   <path d="m35.66 19.426q0 0.13018 0.0063 0.20638t0.03175 0.11748q0.02857 0.0381 0.07937 0.0508t0.14288 0.01905v0.11112h-0.8445v-0.11112q0.09208-0.0032 0.14605-0.01588 0.05397-0.01587 0.08255-0.05397 0.02857-0.0381 0.03493-0.10795 0.0095-0.07302 0.0095-0.19368v-0.37148q0-0.2159-0.0063-0.33655-0.0032-0.12065-0.03175-0.1778-0.0254-0.05715-0.08255-0.06668-0.05715-0.0127-0.15875-0.0127v-0.11112l0.55562-0.12065 0.04445 0.3937h0.0127q0.04127-0.09525 0.1016-0.17462 0.0635-0.07938 0.13652-0.13335 0.07303-0.05715 0.1524-0.0889t0.16192-0.03175q0.1016 0 0.15875 0.0508 0.06032 0.04763 0.06032 0.13018 0 0.0762-0.04762 0.12065-0.04763 0.04127-0.13652 0.04127-0.0508 0-0.08572-0.0127-0.03493-0.0127-0.0635-0.0254-0.0254-0.01588-0.0508-0.02858-0.02222-0.0127-0.0508-0.0127-0.08572 0-0.17145 0.11112-0.08572 0.10795-0.13335 0.27622-0.0254 0.09208-0.04127 0.20955-0.0127 0.1143-0.0127 0.2413z"/>
   <path d="m36.8 18.642q-0.0381-0.09525-0.06985-0.14922-0.02858-0.05715-0.0635-0.08573-0.03493-0.02858-0.07937-0.03493-0.04127-0.0095-0.1016-0.0127v-0.11112h0.84138v0.11112q-0.0635 0.0032-0.10478 0.0064-0.04127 0.0032-0.06667 0.01587-0.02222 0.0095-0.03175 0.03175-0.0095 0.01905-0.0095 0.05715 0 0.05397 0.0127 0.1016 0.01588 0.04763 0.03175 0.09525l0.33655 0.92075h0.0127l0.28892-0.68262q0.06668-0.15875 0.09525-0.254 0.02858-0.09525 0.02858-0.16828 0-0.07303-0.0381-0.09842-0.0381-0.0254-0.1651-0.0254v-0.11112h0.63182v0.11112q-0.0508 0-0.09207 0.0254-0.04128 0.0254-0.07303 0.0635-0.0254 0.03493-0.05398 0.09525-0.0254 0.05715-0.05398 0.12065-0.0254 0.0635-0.04762 0.127-0.02223 0.06033-0.04128 0.09843l-0.46672 1.0763h-0.18415z"/>
   <path d="m39.13 19.426q0 0.12382 0.0095 0.20002 0.0127 0.07302 0.04445 0.11748 0.03175 0.04127 0.0889 0.05715t0.1524 0.01905v0.11112h-0.91122v-0.11112q0.09525-0.0032 0.15558-0.01905 0.06032-0.01905 0.09208-0.05715 0.03493-0.04127 0.04445-0.11112 0.0127-0.07302 0.0127-0.18415v-0.4064q0-0.18415-0.0064-0.30162-0.0032-0.12065-0.01587-0.1651-0.01588-0.07303-0.07303-0.09843-0.05715-0.02858-0.2159-0.02858v-0.11112l0.6223-0.12065zm-0.36512-1.8542q0-0.08255 0.05715-0.1397t0.1397-0.05715 0.1397 0.05715 0.05715 0.1397-0.05715 0.1397-0.1397 0.05715-0.1397-0.05715-0.05715-0.1397z"/>
   <path d="m40.153 19.435q0 0.12065 0.0095 0.19368 0.0095 0.07303 0.0381 0.1143 0.03175 0.04127 0.08572 0.05715 0.05715 0.01588 0.14922 0.01905v0.11112h-0.8763v-0.11112q0.09525-0.0032 0.1524-0.01905 0.05715-0.01905 0.0889-0.05715 0.03493-0.0381 0.04445-0.10478 0.0127-0.06985 0.0127-0.18098v-1.3684q0-0.17145-0.0064-0.28575-0.0032-0.11748-0.0127-0.15875-0.01588-0.07303-0.0762-0.09842-0.05715-0.0254-0.20955-0.0254v-0.10795l0.60008-0.11748z"/>
   <path d="m41.185 19.435q0 0.12065 0.0095 0.19368 0.0095 0.07303 0.0381 0.1143 0.03175 0.04127 0.08572 0.05715 0.05715 0.01588 0.14922 0.01905v0.11112h-0.8763v-0.11112q0.09525-0.0032 0.1524-0.01905 0.05715-0.01905 0.0889-0.05715 0.03493-0.0381 0.04445-0.10478 0.0127-0.06985 0.0127-0.18098v-1.3684q0-0.17145-0.0063-0.28575-0.0032-0.11748-0.0127-0.15875-0.01588-0.07303-0.0762-0.09842-0.05715-0.0254-0.20955-0.0254v-0.10795l0.60008-0.11748z"/>
   <path d="m43.21 19.636q-0.26988 0.32702-0.66992 0.32702-0.18732 0-0.33972-0.06032-0.1524-0.0635-0.26352-0.17462-0.10795-0.1143-0.16828-0.26988-0.06032-0.15875-0.06032-0.34925 0-0.19368 0.0635-0.35878t0.1778-0.28258q0.11748-0.11748 0.27622-0.18415 0.16192-0.06668 0.35242-0.06668 0.30798 0 0.47625 0.16828 0.16828 0.1651 0.16828 0.47625 0 0.04445-0.01905 0.05397-0.01588 0.0095-0.07937 0.0095h-1.0446q-0.0063 0.0254-0.0095 0.0635-0.0032 0.03493-0.0032 0.07937 0 0.1651 0.0381 0.30162 0.04128 0.13335 0.1143 0.2286 0.0762 0.09525 0.1778 0.14922 0.10478 0.0508 0.23178 0.0508 0.13335 0 0.24765-0.05715 0.1143-0.06033 0.23495-0.19368zm-0.52388-0.85725q0.0635 0 0.1016-0.0032t0.05715-0.0127 0.0254-0.0254q0.0063-0.01905 0.0063-0.04763 0-0.14605-0.09525-0.23178-0.09208-0.0889-0.254-0.0889-0.3429 0-0.42545 0.40958z"/>
   <path d="m43.585 19.756q0-0.0889 0.06032-0.14922 0.06032-0.06033 0.14605-0.06033 0.0889 0 0.14922 0.06033 0.06032 0.06032 0.06032 0.14922 0 0.08573-0.06032 0.14605-0.06033 0.06032-0.14922 0.06032-0.08573 0-0.14605-0.06032-0.06032-0.06033-0.06032-0.14605z"/>
  </g>
</svg>
